<?xml version="1.0" encoding="UTF-8" standalone="no"?>
<!-- Created with Inkscape (http://www.inkscape.org/) -->

<svg
   xmlns:dc="http://purl.org/dc/elements/1.1/"
   xmlns:cc="http://creativecommons.org/ns#"
   xmlns:rdf="http://www.w3.org/1999/02/22-rdf-syntax-ns#"
   xmlns:svg="http://www.w3.org/2000/svg"
   xmlns="http://www.w3.org/2000/svg"
   xmlns:sodipodi="http://sodipodi.sourceforge.net/DTD/sodipodi-0.dtd"
   xmlns:inkscape="http://www.inkscape.org/namespaces/inkscape"
   width="150"
   height="150"
   viewBox="0 0 39.6875 39.6875"
   version="1.1"
   id="svg4580"
   inkscape:version="0.92.3 (2405546, 2018-03-11)"
   sodipodi:docname="Mouse.svg">
  <defs
     id="defs4574" />
  <sodipodi:namedview
     id="base"
     pagecolor="#ffffff"
     bordercolor="#666666"
     borderopacity="1.0"
     inkscape:pageopacity="0.0"
     inkscape:pageshadow="2"
     inkscape:zoom="1.7311129"
     inkscape:cx="75.83554"
     inkscape:cy="186.18085"
     inkscape:document-units="mm"
     inkscape:current-layer="layer1"
     showgrid="false"
     units="px"
     inkscape:pagecheckerboard="true"
     inkscape:window-width="1920"
     inkscape:window-height="1001"
     inkscape:window-x="-9"
     inkscape:window-y="-9"
     inkscape:window-maximized="1" />
  <metadata
     id="metadata4577">
    <rdf:RDF>
      <cc:Work
         rdf:about="">
        <dc:format>image/svg+xml</dc:format>
        <dc:type
           rdf:resource="http://purl.org/dc/dcmitype/StillImage" />
        <dc:title></dc:title>
      </cc:Work>
    </rdf:RDF>
  </metadata>
  <g
     inkscape:groupmode="layer"
     id="layer2"
     inkscape:label="Base"
     style="opacity:0" />
  <g
     inkscape:label="Layer 1"
     inkscape:groupmode="layer"
     id="layer1"
     transform="translate(0,-257.3125)">
    <g
       id="g4639"
       transform="matrix(-1,0,0,1,39.47266,2.9180039)"
       style="fill:#ffffff">
      <path
         style="fill:#ffffff;stroke-width:0.172415"
         d="m 11.11926,291.95504 c -1.970842,-0.98938 -2.7662836,-3.21034 -1.8554895,-5.18073 0.4311788,-0.93281 1.2255415,-1.71748 2.1216635,-2.09578 0.444974,-0.18785 2.789881,-0.23354 12.024637,-0.23432 7.33262,-6.9e-4 11.701478,-0.0652 12.108231,-0.17901 1.357001,-0.37967 1.770464,-1.99756 0.738924,-2.89142 -0.43645,-0.3782 -0.559074,-0.38966 -4.176299,-0.39041 l -3.726648,-7e-4 -1.202464,0.60497 c -1.452049,0.73052 -2.753666,1.0814 -4.809855,1.29658 -2.200658,0.2303 -17.6056541,0.20991 -18.7051623,-0.0248 -1.1154495,-0.23816 -1.9601762,-0.67222 -2.5240433,-1.29705 -0.80530348,-0.89237 -1.05867448,-3.16592 -0.61436835,-5.51284 0.2551392,-1.3477 0.41237342,-1.70853 1.25288675,-2.87522 l 0.5772029,-0.8012 -0.3728874,-0.84279 c -0.8134345,-1.83852 -0.3049495,-4.0895 1.2398706,-5.4887 1.3852053,-1.25464 3.1739032,-1.62009 4.8887168,-0.99882 l 0.8589027,0.31118 1.0489844,-0.74848 c 2.1404322,-1.52725 4.2581962,-2.26858 6.9452012,-2.43118 6.19546,-0.3749 11.869826,3.85636 13.335937,9.94434 0.360525,1.49707 0.367734,4.50047 0.01347,5.60727 l -0.258806,0.80854 3.114164,0.0571 c 2.795716,0.0513 3.184426,0.0952 3.801285,0.42924 0.961095,0.52051 1.414848,1.06557 1.713922,2.05879 0.309909,1.02921 0.319948,1.95989 0.03296,3.05549 -0.23294,0.88926 -0.723571,1.50907 -1.658057,2.09462 -0.603006,0.37784 -0.62744,0.37873 -12.772614,0.46509 l -12.168454,0.0865 -0.414471,0.48554 c -0.517805,0.6066 -0.557719,1.634 -0.08628,2.22085 l 0.328187,0.40854 7.212352,0.0865 c 6.784163,0.0814 7.233807,0.10609 7.573711,0.41618 0.458477,0.41827 0.466941,1.20797 0.0178,1.66044 -0.332604,0.33506 -0.572602,0.3461 -7.524616,0.3461 H 12.0167 Z m 2.177418,-11.58597 c 0.380268,-0.15328 0.751189,-0.45451 0.862379,-0.70035 0.322286,-0.71257 0.236348,-2.46993 -0.179051,-3.66144 -0.376763,-1.0807 -0.376854,-1.08425 -0.03932,-1.53969 0.216784,-0.29251 0.632348,-0.5317 1.156839,-0.66586 2.527272,-0.64645 2.846765,-3.70238 0.513343,-4.91007 -1.334897,-0.69089 -3.489849,0.58719 -3.489849,2.0698 0,1.44432 -0.651161,1.83952 -2.3393683,1.41983 -3.5913341,-0.8928 -7.1676684,1.7509 -7.401875,5.47163 -0.091407,1.45215 0.2706043,2.25617 1.1522169,2.55904 0.3986214,0.13694 2.0328057,0.20984 4.8493239,0.21631 3.4579825,0.008 4.3721985,-0.0403 4.9153625,-0.2592 z m -4.5331884,-3.27073 c -0.4149361,-0.418 -0.5442521,-1.12862 -0.3149362,-1.73063 0.1277499,-0.33537 0.9429243,-0.78648 1.4212082,-0.78648 0.5085864,0 1.2062484,0.70159 1.3267434,1.33421 0.08847,0.46447 0.02023,0.64169 -0.416421,1.08158 -0.661176,0.66607 -1.4182388,0.70411 -2.0165944,0.10132 z m 14.0938124,3.36025 c 2.692768,-0.38649 4.186248,-1.21129 4.923266,-2.71896 0.585952,-1.19865 0.580872,-4.07904 -0.01041,-5.8974 -1.00621,-3.09443 -3.463896,-5.61973 -6.548649,-6.72883 -1.839821,-0.66149 -4.541105,-0.75795 -6.454309,-0.23048 -1.215556,0.33513 -2.895789,1.14738 -3.71981,1.79822 -0.332936,0.26296 -0.37794,0.58688 -0.135253,0.97348 0.13599,0.21663 0.219998,0.19836 0.557796,-0.12134 0.72577,-0.68687 2.019602,-1.14879 3.229336,-1.15292 1.941304,-0.007 3.565389,1.08416 4.422586,2.97038 0.366085,0.80555 0.416791,1.12259 0.348354,2.17811 -0.05033,0.77628 -0.212446,1.49256 -0.436258,1.92754 -0.367629,0.71449 -1.331216,1.71539 -2.129331,2.21177 -0.430334,0.26764 -0.446219,0.32476 -0.285336,1.02592 0.170503,0.74309 0.09709,2.82184 -0.125527,3.55459 l -0.118295,0.38937 2.639688,-0.003 c 1.451829,-0.002 3.180797,-0.0811 3.842152,-0.17601 z M 7.6541709,269.92796 8.9430784,269.8223 8.9173237,269.25594 c -0.09964,-2.19116 -3.3825071,-2.90621 -4.6184543,-1.00596 -0.3666793,0.56376 -0.499428,1.6229 -0.27641,2.20533 l 0.1761206,0.45995 1.0833418,-0.44082 c 0.6415414,-0.26105 1.6089743,-0.48391 2.3722491,-0.54648 z"
         id="path4653"
         inkscape:connector-curvature="0" />
      <path
         style="fill:#ffffff;stroke-width:0.172415"
         d="m 11.069658,291.74897 c -0.663381,-0.34912 -1.060034,-0.71366 -1.4268062,-1.31129 -1.2121805,-1.97517 -0.5440397,-4.41621 1.5120372,-5.5242 0.706515,-0.38073 0.741529,-0.38201 12.762352,-0.4683 l 12.053895,-0.0865 0.434228,-0.4111 c 0.607389,-0.57503 0.720602,-1.2651 0.337022,-2.05424 -0.495634,-1.01966 -0.748694,-1.07682 -4.780446,-1.07967 l -3.607124,-0.003 -1.374512,0.6939 c -2.499343,1.26174 -2.862406,1.2962 -13.656822,1.2962 -10.586898,0 -10.6506907,-0.006 -11.8655449,-1.10533 -0.52431491,-0.47448 -0.75050103,-0.85463 -0.9382772,-1.57698 -0.61176557,-2.35335 -0.007101,-5.25536 1.4730794,-7.06983 l 0.4734635,-0.5804 -0.3643058,-0.80402 c -0.5472542,-1.20778 -0.5060425,-2.94975 0.097374,-4.11586 1.1407172,-2.20445 3.4757716,-3.14114 5.9063766,-2.36929 l 0.9105708,0.28916 1.0379186,-0.73345 c 4.718812,-3.33455 10.781454,-3.25214 15.412453,0.20952 2.073525,1.54995 3.950333,4.39821 4.639367,7.04074 0.389947,1.49549 0.394512,4.80719 0.008,5.82485 -0.150355,0.39591 -0.227733,0.7658 -0.171953,0.822 0.05578,0.0562 1.421984,0.10293 3.036006,0.10386 2.729277,0.002 2.99608,0.0305 3.81359,0.41401 2.849114,1.33643 2.836629,5.71114 -0.0201,7.04355 -0.647187,0.30185 -1.363842,0.3207 -12.330771,0.32428 -12.515376,0.004 -12.451829,-1.7e-4 -13.070298,0.88928 -0.55284,0.79514 -0.202095,2.14622 0.659872,2.54186 0.324941,0.14915 2.34163,0.20675 7.238963,0.20675 4.298588,0 6.90897,0.0649 7.116872,0.17702 0.716206,0.38613 0.766591,1.31592 0.09576,1.76716 -0.103956,0.0699 -3.407509,0.12833 -7.341231,0.12979 l -7.152221,0.003 z m 2.520997,-11.31427 c 0.288664,-0.15942 0.617194,-0.49405 0.730067,-0.74361 0.314761,-0.69594 0.247489,-2.40159 -0.138337,-3.50746 -0.188959,-0.5416 -0.343561,-1.11164 -0.343561,-1.26675 0,-0.41946 0.505405,-0.79725 1.374244,-1.02724 1.309065,-0.34652 2.061366,-1.30772 2.061366,-2.63377 0,-1.66318 -1.411754,-2.89484 -3.036749,-2.64936 -1.061663,0.16039 -2.036908,1.08745 -2.198206,2.0896 -0.208445,1.29508 -0.267166,1.45299 -0.608833,1.63719 -0.251839,0.13578 -0.68831,0.11289 -1.6455178,-0.0863 -3.4612183,-0.72022 -6.5554093,1.21765 -7.3910516,4.62896 -0.4928008,2.01175 -0.01875,3.36688 1.3096955,3.74391 0.3389577,0.0962 2.5120863,0.15626 4.9816355,0.13766 3.7319114,-0.0281 4.4581034,-0.0759 4.9052474,-0.32284 z m -4.7334669,-3.43075 c -0.4784783,-0.48202 -0.4521729,-1.39434 0.054017,-1.8734 0.5273953,-0.49913 1.2332189,-0.47966 1.7574869,0.0485 0.515289,0.5191 0.537902,1.11019 0.06561,1.71505 -0.446112,0.57133 -1.3656134,0.62515 -1.8771175,0.10986 z m 14.1471409,3.54802 c 1.863294,-0.28292 3.441815,-0.90232 4.121324,-1.61716 0.886157,-0.93223 1.22457,-2.02295 1.216531,-3.92096 -0.0048,-1.13725 -0.112341,-2.08647 -0.313641,-2.76882 -1.047523,-3.55081 -3.649735,-6.20447 -7.318498,-7.46319 -0.743262,-0.255 -1.421139,-0.32142 -3.17794,-0.31138 -1.947602,0.0111 -2.393665,0.0702 -3.488502,0.4621 -1.504612,0.53854 -3.46861,1.78122 -3.46861,2.19469 0,0.16098 0.109723,0.44386 0.243827,0.62862 0.240229,0.33096 0.249735,0.33046 0.644177,-0.0339 1.753298,-1.61967 4.535349,-1.62447 6.280128,-0.0108 2.445456,2.26165 2.060585,5.96685 -0.80646,7.76387 -0.411623,0.258 -0.424175,0.32651 -0.441808,2.41145 -0.01,1.18026 -0.07958,2.32113 -0.154662,2.53528 l -0.136514,0.38937 2.553798,-0.001 c 1.404589,-5.2e-4 3.31567,-0.1167 4.24685,-0.25809 z M 5.7651385,270.45024 c 0.5196362,-0.19017 1.505227,-0.39894 2.1902018,-0.46392 1.4287477,-0.13555 1.4830764,-0.2278 0.8589027,-1.45837 -0.4871983,-0.96053 -1.0857629,-1.40259 -2.0469243,-1.51173 -1.5768891,-0.17905 -2.9432083,0.98107 -2.9641653,2.51684 -0.021302,1.56104 0.07705,1.60702 1.9619851,0.91718 z"
         id="path4651"
         inkscape:connector-curvature="0" />
      <path
         style="fill:#ffffff;stroke-width:0.172415"
         d="m 11.7015,291.9743 c -2.5987755,-0.93263 -3.4550592,-4.0201 -1.668565,-6.0163 1.255009,-1.40232 0.533533,-1.33169 13.645842,-1.33597 12.75994,-0.004 12.55161,0.0121 13.081338,-1.01988 0.489563,-0.95372 0.255216,-2.0051 -0.573353,-2.57232 -0.382817,-0.26207 -0.95029,-0.31353 -4.010069,-0.36365 l -3.564149,-0.0584 -1.417487,0.70401 c -1.833061,0.91041 -2.964325,1.1898 -5.611572,1.38592 -2.877451,0.21317 -16.1287238,0.21277 -17.5125773,-5.2e-4 -1.9722046,-0.30398 -3.10339525,-1.14946 -3.54952356,-2.65299 -0.62948315,-2.12147 0.047877,-5.18994 1.54002406,-6.97638 0.5210952,-0.62387 0.526955,-0.68226 0.1450348,-1.44516 -0.1621759,-0.32396 -0.3251658,-1.10867 -0.3621997,-1.7438 -0.05557,-0.95305 0.00625,-1.31585 0.3538529,-2.07663 1.0792203,-2.36202 3.6346595,-3.42985 6.007313,-2.51024 l 0.8083555,0.31331 0.9094498,-0.6848 c 2.2744035,-1.7126 4.7349245,-2.51765 7.6947805,-2.51765 3.665934,0 6.387099,1.14099 9.027727,3.78534 1.31419,1.31605 1.679601,1.8123 2.357336,3.20146 0.441134,0.9042 0.918962,2.15017 1.06184,2.76883 0.334253,1.44731 0.337827,4.14441 0.0072,5.42322 -0.141719,0.54812 -0.257671,1.02429 -0.257671,1.05816 0,0.0339 1.410748,0.0901 3.134995,0.12503 2.630245,0.0532 3.231796,0.11474 3.736226,0.38198 0.974795,0.51645 1.690761,1.31981 1.99289,2.23617 0.69903,2.12016 -0.4421,4.36874 -2.522049,4.96968 -0.354854,0.10253 -5.149038,0.16931 -12.181466,0.16971 -11.182523,6.9e-4 -11.615866,0.0127 -12.144065,0.3371 -1.001314,0.61506 -1.09729,2.0219 -0.197227,2.891 l 0.509399,0.49186 7.21018,0.0865 c 7.761952,0.0932 7.531831,0.0631 7.538223,0.98524 0.0062,0.89356 -0.206619,0.91894 -7.636881,0.91073 -5.452764,-0.006 -7.016108,-0.0579 -7.553133,-0.25061 z m 1.651566,-11.37538 c 0.96627,-0.42595 1.263648,-1.02034 1.232249,-2.46298 -0.01532,-0.70409 -0.16851,-1.62079 -0.362846,-2.17137 -0.21874,-0.61973 -0.288427,-1.08329 -0.199327,-1.32594 0.138163,-0.37625 0.298954,-0.4571 1.321682,-0.66456 0.765301,-0.15524 1.674926,-1.06403 1.932761,-1.93098 0.530783,-1.7847 -0.744718,-3.51868 -2.588312,-3.51868 -1.509198,0 -2.471182,0.87459 -2.805692,2.55081 -0.247534,1.24038 -0.485148,1.38969 -1.782132,1.11982 -1.9005494,-0.39546 -3.6351253,-0.1417 -5.00684,0.73247 -0.8974397,0.57192 -2.0544939,1.90267 -2.4646887,2.83468 -0.4380393,0.99527 -0.6056641,3.09509 -0.3053761,3.82542 0.4917597,1.196 1.4407742,1.38677 6.6185342,1.33047 3.0282416,-0.0329 3.9045166,-0.0963 4.4099876,-0.31916 z m -4.4177959,-3.67363 c -0.7896617,-0.79551 -0.3215671,-2.05564 0.7635951,-2.05564 1.1555048,0 1.6858198,1.33723 0.8437368,2.12756 -0.502547,0.47166 -1.0940181,0.44519 -1.6073319,-0.0719 z m 14.6221699,3.62914 c 2.294737,-0.44231 3.549959,-1.19129 4.294714,-2.56262 0.419371,-0.77219 0.498861,-1.13688 0.554801,-2.54533 0.08231,-2.0725 -0.246112,-3.55685 -1.192413,-5.38923 -2.0162,-3.90407 -6.519344,-6.27133 -10.848737,-5.70309 -1.743778,0.22888 -3.324701,0.78336 -4.622103,1.62111 -1.313567,0.8482 -1.423806,1.01961 -1.082886,1.68375 l 0.279188,0.54389 0.589417,-0.4529 c 1.029731,-0.79123 1.962902,-1.12157 3.168305,-1.12157 1.829847,0 3.24186,0.85779 4.083906,2.48093 0.377381,0.72745 0.460397,1.11822 0.463951,2.18387 0.0058,1.74093 -0.60241,2.8943 -2.042312,3.87286 -0.80903,0.54982 -0.969689,0.73784 -0.887193,1.03831 0.270419,0.98493 0.288094,2.8223 0.03503,3.64117 -0.144739,0.46835 -0.216666,0.92733 -0.159836,1.01996 0.141287,0.23031 5.796407,-0.009 7.366171,-0.31111 z M 5.4080994,270.66402 c 0.6768682,-0.27323 1.6467188,-0.49878 2.4184055,-0.56242 1.2434575,-0.10254 1.2902285,-0.12263 1.342143,-0.57623 0.081039,-0.70808 -0.4551002,-1.66949 -1.212634,-2.17452 -1.7962938,-1.19752 -4.2522418,0.11356 -4.2522418,2.27002 0,0.6524 0.2568267,1.49932 0.4546669,1.49932 0.065785,0 0.6281322,-0.20528 1.2496604,-0.45617 z"
         id="path4649"
         inkscape:connector-curvature="0" />
      <path
         style="fill:#ffffff;stroke-width:0.172415"
         d="m 11.348006,291.78787 c -0.745625,-0.38986 -1.44105,-1.10031 -1.8376064,-1.8773 -0.2686866,-0.52645 -0.3308141,-0.91832 -0.2780177,-1.75361 0.085176,-1.34756 0.656102,-2.28276 1.8111611,-2.96674 l 0.819804,-0.48546 12.05388,-0.0865 12.053881,-0.0865 0.438168,-0.41481 c 1.012218,-0.95827 0.88552,-2.41762 -0.27159,-3.12831 -0.522735,-0.32106 -0.860772,-0.3493 -4.188728,-0.34989 l -3.620105,-6.5e-4 -1.29508,0.67513 c -2.474901,1.29019 -2.734863,1.31496 -13.796181,1.31496 -10.5191533,0 -10.3140431,0.016 -11.5538268,-0.90294 -1.14198667,-0.84648 -1.62466664,-2.67754 -1.26075799,-4.78272 0.25020507,-1.44742 0.65125099,-2.38047 1.52393829,-3.54549 l 0.6926433,-0.92467 -0.3349246,-0.76276 c -1.7123701,-3.89974 1.7042658,-7.67032 5.7800621,-6.37884 0.6249204,0.19802 1.0593427,0.25341 1.1915373,0.15194 2.8134534,-2.15961 5.2058944,-3.01634 8.4162264,-3.01384 5.663327,0.004 10.439584,3.61093 12.144909,9.17053 0.508325,1.65721 0.566696,4.98725 0.108998,6.21825 -0.156871,0.4219 -0.24618,0.83074 -0.198465,0.90852 0.04772,0.0778 1.464742,0.14141 3.148947,0.14141 3.133918,0 3.500157,0.0616 4.525862,0.76064 0.591023,0.40282 1.259497,1.53279 1.415601,2.39288 0.273086,1.50463 -0.672904,3.32793 -2.054665,3.96015 -0.657188,0.3007 -1.386807,0.32043 -12.12268,0.32789 -6.282873,0.004 -11.720756,0.0774 -12.084186,0.1624 -1.775553,0.41507 -2.224648,2.57125 -0.727153,3.49118 0.494393,0.30371 0.981731,0.32503 7.443198,0.32563 6.684676,7e-4 6.925569,0.0121 7.257727,0.34675 0.426528,0.42969 0.434538,0.72868 0.02942,1.09802 -0.281837,0.25695 -1.054681,0.28629 -7.515398,0.28533 -6.181858,-9.1e-4 -7.274207,-0.0392 -7.716598,-0.27052 z m 2.289624,-11.20459 c 1.099954,-0.60465 1.363849,-2.3451 0.679933,-4.4843 -0.459651,-1.43773 -0.375661,-1.63474 0.871557,-2.04434 1.471179,-0.48315 2.257095,-1.44763 2.257095,-2.76991 0,-1.40002 -0.956744,-2.55255 -2.361388,-2.84464 -1.534494,-0.31908 -3.30737,1.19296 -3.30737,2.82077 0,0.27846 -0.151727,0.63622 -0.34427,0.81176 -0.304216,0.27735 -0.449114,0.29121 -1.245409,0.11917 -1.4651881,-0.31657 -1.7845958,-0.33669 -2.7995271,-0.17635 -2.5061627,0.39591 -4.5077531,2.25812 -5.1525877,4.79378 -0.5187908,2.04003 0.036765,3.58774 1.4263015,3.9735 0.3795056,0.10536 2.4382388,0.16548 5.0234429,0.14671 3.8708274,-0.0281 4.4469244,-0.0684 4.9522224,-0.34615 z m -4.54,-3.53872 c -0.8932077,-0.60082 -0.4311839,-2.11723 0.6450847,-2.11723 0.9725743,0 1.4803473,1.04249 0.9084283,1.86506 -0.26949,0.3876 -1.1417028,0.52918 -1.553513,0.25217 z m 14.89876,3.52883 c 1.360868,-0.30437 2.639877,-0.93175 3.275051,-1.60647 1.138897,-1.20981 1.539961,-3.31171 1.101003,-5.77011 -1.165494,-6.52739 -7.983137,-10.54901 -14.255846,-8.4093 -1.497238,0.51073 -3.713385,1.85611 -3.713385,2.25433 0,0.35904 0.370376,1.13647 0.541428,1.13647 0.0785,0 0.48515,-0.26332 0.903675,-0.58515 1.895986,-1.45795 4.567506,-1.21144 6.164,0.56876 0.867466,0.96729 1.186144,1.80264 1.194563,3.13132 0.01093,1.72324 -0.841314,3.18056 -2.375472,4.06206 l -0.528917,0.3039 0.01358,2.10005 c 0.0075,1.15503 -0.05636,2.36472 -0.14184,2.6882 l -0.155416,0.58815 3.419247,-0.10372 c 1.984463,-0.0602 3.897229,-0.21063 4.558333,-0.35849 z M 5.5074677,270.69524 c 0.5966866,-0.24509 1.5928515,-0.47291 2.3657566,-0.54103 0.7342905,-0.0647 1.3754854,-0.18356 1.4248778,-0.26407 0.2080765,-0.33916 -0.3366679,-1.64753 -0.938306,-2.25362 -1.4417029,-1.45237 -3.657702,-0.94825 -4.5262073,1.02968 -0.45274,1.03107 -0.1916755,2.45584 0.4495037,2.45319 0.1065306,-4.4e-4 0.6574995,-0.19131 1.2243752,-0.42415 z"
         id="path4647"
         inkscape:connector-curvature="0" />
      <path
         style="fill:#ffffff;stroke-width:0.172415"
         d="m 11.607441,291.83181 c -1.229034,-0.39429 -2.4088727,-2.07475 -2.4057338,-3.42652 0.00309,-1.32861 0.9154458,-2.72864 2.1448258,-3.29127 0.643274,-0.2944 1.451757,-0.31603 12.283781,-0.3287 8.505713,-0.01 11.753796,-0.0686 12.190469,-0.22012 0.70323,-0.244 1.380193,-1.16843 1.380193,-1.88472 0,-0.27619 -0.117261,-0.7306 -0.260579,-1.00979 -0.487766,-0.95022 -0.887915,-1.03265 -5.012872,-1.03265 h -3.744489 l -1.374512,0.68901 c -2.497344,1.25186 -3.014002,1.30108 -13.656823,1.30108 -10.4275733,0 -10.5385501,-0.0112 -11.6318816,-1.17198 -0.93269316,-0.99025 -1.15556289,-1.61774 -1.15106783,-3.24084 0.004927,-1.779 0.54833774,-3.38694 1.62974323,-4.82237 l 0.6996578,-0.92872 -0.3842016,-0.88833 c -0.5215877,-1.20599 -0.5247947,-2.70569 -0.00809,-3.78097 0.5379995,-1.11958 1.6824976,-2.12995 2.7870157,-2.46038 1.2061219,-0.36083 1.8457444,-0.34198 2.9866447,0.0881 l 0.9530312,0.35921 0.6423827,-0.50967 c 1.1932587,-0.94675 2.3572327,-1.56971 3.9941597,-2.1377 1.506963,-0.52289 1.798243,-0.56609 3.863005,-0.57292 1.87471,-0.006 2.439938,0.0577 3.521501,0.39808 4.3752,1.37695 7.580726,4.6048 8.733054,8.79389 0.672392,2.44437 0.657535,3.51258 -0.09409,6.76467 l -0.08999,0.38937 h 3.000551 c 3.171623,0 3.782786,0.10542 4.733167,0.81642 1.87002,1.39901 2.013833,3.9758 0.313795,5.62242 -0.199776,0.1935 -0.672434,0.49649 -1.050351,0.6733 -0.648006,0.30319 -1.349954,0.3217 -12.330771,0.32529 -12.583231,0.004 -12.452049,-0.005 -13.057635,0.92588 -0.161031,0.24759 -0.292783,0.77218 -0.292783,1.16576 0,0.58308 0.108155,0.82455 0.584053,1.30397 l 0.584054,0.58838 h 6.936067 c 5.999662,0 6.987611,0.0364 7.317851,0.26939 0.47302,0.33377 0.500257,1.03897 0.04951,1.28199 -0.469651,0.25321 -13.980368,0.20887 -14.782654,-0.0485 z m 1.576164,-11.02675 c 0.348225,-0.0974 0.831358,-0.41446 1.073629,-0.70452 0.386183,-0.46235 0.440492,-0.68566 0.440492,-1.81129 0,-0.85845 -0.120394,-1.63438 -0.363304,-2.34149 -0.354247,-1.0312 -0.355317,-1.06504 -0.04294,-1.35728 0.176197,-0.16485 0.664356,-0.39791 1.084798,-0.51791 1.527218,-0.43591 2.50949,-2.06183 2.092555,-3.46374 -0.259176,-0.87145 -0.965096,-1.71885 -1.683937,-2.02142 -1.654352,-0.69635 -3.65169,0.34049 -3.934265,2.04232 -0.197339,1.18849 -0.256358,1.34969 -0.552639,1.50943 -0.20222,0.10902 -0.674877,0.0762 -1.4151613,-0.0984 -3.9792986,-0.93831 -7.8968609,2.14317 -7.8968609,6.21151 0,1.27796 0.3694816,1.98997 1.2389432,2.3875 0.6661825,0.3046 1.146726,0.33703 5.0310463,0.3396 2.4120417,0.002 4.5720437,-0.0748 4.9276487,-0.17432 z M 9.0289687,276.8309 c -0.1889586,-0.19036 -0.3435611,-0.54079 -0.3435611,-0.77873 0,-0.52311 0.5555448,-1.12484 1.0384915,-1.12484 0.4004519,0 1.1946559,0.72704 1.1946559,1.09363 0,0.13426 -0.160213,0.44929 -0.356029,0.70008 -0.427856,0.54795 -1.0541453,0.59282 -1.5335573,0.10986 z m 13.8283333,3.97382 c 3.953922,-0.56741 5.552639,-2.03847 5.720685,-5.26387 0.266584,-5.11668 -3.20419,-9.75377 -8.290539,-11.07648 -1.296624,-0.33719 -3.968647,-0.34017 -5.375609,-0.006 -1.284964,0.3052 -3.230583,1.26203 -4.062504,1.99787 -0.549006,0.4856 -0.584166,0.57195 -0.405998,0.99706 0.390477,0.93167 0.503808,0.94841 1.469879,0.21715 2.488532,-1.88369 5.968529,-0.86022 6.989763,2.05568 0.725173,2.07057 -0.01796,4.18839 -1.914905,5.45721 -0.798037,0.53379 -0.931132,0.69511 -0.834524,1.01152 0.288711,0.94556 0.302432,2.8829 0.02644,3.73295 -0.153889,0.47397 -0.279799,0.90554 -0.279799,0.95904 0,0.16676 5.690886,0.0996 6.957112,-0.0822 z m -17.5083265,-9.9725 c 0.7266603,-0.33513 1.4007137,-0.4887 2.468631,-0.56242 1.3825872,-0.0954 1.4724344,-0.12562 1.5268356,-0.51313 0.09703,-0.69116 -0.470047,-1.89363 -1.1333954,-2.40333 -0.5263217,-0.40442 -0.7791356,-0.47292 -1.7454143,-0.47292 -1.3493057,0 -2.0514955,0.40742 -2.6129136,1.51603 -0.394845,0.77969 -0.3854754,2.14159 0.018104,2.63147 0.2855737,0.34664 0.3089343,0.34355 1.4781527,-0.1957 z"
         id="path4645"
         inkscape:connector-curvature="0" />
      <path
         style="fill:#ffffff;stroke-width:0.172415"
         d="m 11.348006,291.64045 c -0.646735,-0.29166 -1.5535953,-1.24507 -1.7931597,-1.88519 -0.1002742,-0.26794 -0.1823166,-0.89815 -0.1823166,-1.40046 0,-1.27093 0.5624985,-2.29066 1.6315893,-2.95784 l 0.831902,-0.51915 12.0383,-0.0865 c 11.223617,-0.0807 12.069095,-0.10759 12.493325,-0.3978 0.844053,-0.57741 1.129877,-1.97584 0.577441,-2.8252 -0.152966,-0.23519 -0.525149,-0.57935 -0.827072,-0.7648 -0.498478,-0.30619 -0.884055,-0.33726 -4.193378,-0.33785 l -3.644421,-6.4e-4 -1.147726,0.63553 c -2.347788,1.30006 -2.57,1.32327 -13.375613,1.39688 -6.7247546,0.0458 -9.8493599,0.007 -10.3927218,-0.12828 -1.1222551,-0.27992 -1.9553731,-0.89676 -2.49759915,-1.84923 -1.00087028,-1.75811 -0.50844981,-4.768 1.13872905,-6.9604 0.367292,-0.48887 0.6677649,-0.98462 0.6677173,-1.10166 -4.78e-5,-0.11704 -0.1546503,-0.62247 -0.3435611,-1.12318 -1.1493976,-3.04648 0.8904505,-6.09822 4.0761746,-6.09822 0.5985995,0 1.3658746,0.11681 1.7050558,0.25958 0.8739424,0.36785 0.9983048,0.3407 1.9649473,-0.42904 3.414103,-2.71867 9.053617,-3.2383 13.064009,-1.20374 2.846527,1.4441 4.944993,3.66715 6.115174,6.47823 0.914252,2.19626 1.149859,5.81705 0.497537,7.64608 -0.20059,0.56243 -0.211869,0.76275 -0.05054,0.89764 0.117472,0.0982 1.629115,0.19715 3.480162,0.22778 3.162498,0.0523 3.293909,0.0687 3.910051,0.48677 0.350664,0.23794 0.881801,0.82199 1.180306,1.29789 0.45583,0.7267 0.541583,1.03008 0.535524,1.89456 -0.0043,0.61907 -0.08636,1.05589 -0.205809,1.096 -0.109228,0.0367 -0.198595,0.15019 -0.198595,0.25224 0,0.38017 -0.902676,1.35912 -1.598921,1.73403 l -0.720116,0.38777 -12.056438,0.0865 -12.056436,0.0865 -0.524348,0.50621 c -0.999037,0.96447 -0.824038,2.48093 0.371003,3.21495 0.534907,0.32855 0.875707,0.3443 7.462401,0.34491 6.044846,5.2e-4 6.935418,0.0344 7.171838,0.27259 0.322779,0.32517 0.343765,0.62278 0.0638,0.90481 -0.315046,0.31738 -14.458731,0.28168 -15.168221,-0.0383 z m 1.875608,-10.79367 c 1.115493,-0.38982 1.517427,-0.95942 1.61263,-2.28533 0.05498,-0.76565 -0.02623,-1.3597 -0.305434,-2.23447 -0.459474,-1.43954 -0.416016,-1.77774 0.254475,-1.98037 1.376501,-0.41599 1.871317,-0.72869 2.345839,-1.48247 1.430565,-2.27246 -0.618664,-5.19145 -3.160513,-4.50193 -0.455919,0.12367 -0.996679,0.4688 -1.449856,0.92533 -0.599368,0.6038 -0.742867,0.88093 -0.840643,1.62345 -0.160409,1.21818 -0.350954,1.34586 -1.607588,1.07721 -3.3059762,-0.70677 -6.2056655,0.72387 -7.6145294,3.75682 -0.4388661,0.94478 -0.529288,1.35426 -0.529288,2.3969 0,1.36119 0.2303822,1.91615 1.0087485,2.42992 0.7288017,0.48107 1.4003181,0.54957 5.4902817,0.56007 3.2979462,0.008 4.0906002,-0.0387 4.7958772,-0.28513 z m -4.1058951,-4.08379 c -0.5020032,-0.50572 -0.5332854,-0.74816 -0.1648998,-1.278 0.5479091,-0.78804 1.7939549,-0.34012 1.7939549,0.64487 0,0.91232 -0.9755566,1.29146 -1.6290551,0.63313 z m 14.7233161,3.97939 c 2.217204,-0.49433 3.562239,-1.35221 4.261183,-2.71784 0.524297,-1.02439 0.733364,-2.68102 0.526987,-4.1758 -0.374128,-2.7098 -1.262067,-4.51021 -3.188922,-6.46599 -1.089856,-1.10621 -1.687941,-1.5532 -2.840652,-2.123 -2.398015,-1.18537 -4.788635,-1.50471 -7.300673,-0.97522 -1.333859,0.28115 -3.635436,1.3567 -4.532967,2.11829 -0.576875,0.48951 -0.579915,0.49972 -0.344174,1.15647 0.130813,0.36444 0.327088,0.69711 0.436168,0.73928 0.10908,0.0422 0.542403,-0.18792 0.962941,-0.5113 1.913946,-1.47176 4.60933,-1.25296 6.135439,0.49805 0.808571,0.92772 1.093462,1.71562 1.087613,3.00792 -0.008,1.75567 -0.731211,3.03627 -2.206885,3.90747 l -0.744691,0.43965 0.100958,1.79599 c 0.06787,1.20737 0.0303,2.05021 -0.114631,2.57169 -0.118574,0.42664 -0.157252,0.8708 -0.08595,0.98702 0.179868,0.29318 6.280924,0.0968 7.848258,-0.25268 z M 5.536679,270.85521 c 0.6746054,-0.27188 1.6082016,-0.47852 2.4613505,-0.5448 1.4584377,-0.1133 1.4591824,-0.11389 1.3756491,-1.09379 -0.088742,-1.041 -1.2688419,-2.32198 -2.3225889,-2.52112 -2.2911605,-0.43301 -4.2352281,1.94303 -3.3724801,4.12185 0.2325058,0.58718 0.4824518,0.59227 1.8580694,0.0379 z"
         id="path4643"
         inkscape:connector-curvature="0" />
      <path
         style="fill:#ffffff;stroke-width:0.172415"
         d="m 11.691567,291.62635 c -0.898872,-0.32032 -1.9004914,-1.41252 -2.1494169,-2.3438 -0.3676189,-1.37534 0.2307965,-2.96925 1.4099969,-3.7556 l 0.713927,-0.47609 12.123274,-0.0865 c 13.335651,-0.0952 12.557365,-0.026 13.27066,-1.17958 0.544223,-0.88015 0.363369,-2.00897 -0.440815,-2.7514 l -0.615635,-0.56836 h -4.043049 c -4.007529,0 -4.048675,0.004 -4.683542,0.4259 -0.810441,0.5389 -1.839829,0.91028 -3.474872,1.25363 -1.044622,0.21937 -2.945736,0.28212 -10.049162,0.3317 -9.0791231,0.0634 -10.2028996,5.2e-4 -11.4511624,-0.64108 -0.688443,-0.35382 -1.51826752,-1.41398 -1.51826752,-1.93969 0,-0.17388 -0.067422,-0.27417 -0.14982669,-0.22287 -0.0824047,0.0513 -0.18786146,-0.24665 -0.23434839,-0.66214 -0.1098547,-0.98184 0.0409839,-2.54584 0.23394445,-2.4257 0.0826269,0.0514 0.15029161,-0.0473 0.15036615,-0.21952 2.1472e-4,-0.496 0.9347322,-2.35422 1.523952,-3.03027 0.630829,-0.7238 0.6483774,-0.892 0.1974905,-1.89302 -0.2105509,-0.46745 -0.3412233,-1.13495 -0.3435611,-1.75498 -0.00652,-1.72917 0.747269,-3.01505 2.251663,-3.84108 0.7548876,-0.4145 1.1253827,-0.50593 2.0390777,-0.5032 0.7086503,0.002 1.3174186,0.10975 1.6663296,0.29465 0.7692657,0.40763 0.8871176,0.38177 1.9456847,-0.42699 1.126994,-0.86104 2.933928,-1.73347 4.461671,-2.15419 1.518844,-0.41828 4.656391,-0.4197 6.184099,-0.003 4.455044,1.21576 7.947564,4.7726 9.017844,9.18392 0.365954,1.50834 0.371996,4.00283 0.01293,5.33754 -0.14848,0.55192 -0.269963,1.10934 -0.269963,1.2387 0,0.18795 0.664399,0.24767 3.306775,0.29724 3.631039,0.0681 3.861087,0.12468 4.912796,1.20836 0.304948,0.31422 0.598375,0.7476 0.652058,0.96308 0.05369,0.21547 0.158277,0.35399 0.23243,0.30783 0.193267,-0.12033 0.307023,1.10897 0.15983,1.72719 -0.06839,0.28726 -0.132266,0.44738 -0.141938,0.35583 -0.0097,-0.0916 -0.191511,0.17996 -0.404089,0.60337 -0.22589,0.44991 -0.695967,0.98652 -1.131192,1.29129 l -0.744695,0.52147 -12.138854,0.0865 c -13.161611,0.0938 -12.560203,0.0457 -13.149527,1.05078 -0.39909,0.68061 -0.359662,1.91248 0.0792,2.47453 0.693012,0.88755 0.645742,0.88195 8.229935,0.97403 6.684964,0.0812 7.130362,0.10581 7.186022,0.39768 0.153768,0.80632 0.08317,0.81417 -7.247791,0.80609 -5.48986,-0.006 -7.033015,-0.0574 -7.580256,-0.25246 z m 0.582893,-10.47287 c 1.721077,-0.22506 2.327324,-0.68723 2.593075,-1.97681 0.207679,-1.00779 0.07644,-2.14501 -0.403744,-3.49864 -0.308963,-0.87095 -0.140403,-1.17326 0.746466,-1.33876 1.366883,-0.25507 2.579519,-1.67464 2.579519,-3.0197 0,-0.64314 -0.396601,-1.68383 -0.822509,-2.15829 -1.314781,-1.46467 -3.953544,-1.20985 -4.934567,0.47653 -0.234863,0.40373 -0.427023,0.96542 -0.427023,1.24819 0,0.28278 -0.108087,0.66305 -0.240193,0.84506 -0.221793,0.30556 -0.317985,0.31472 -1.255749,0.1196 -2.6435919,-0.55007 -4.878959,0.11527 -6.5600694,1.95256 -1.0594999,1.15793 -1.6086442,2.47501 -1.7008339,4.07931 -0.1243725,2.16437 0.534471,3.01931 2.5258408,3.27766 1.4399,0.1868 6.4525295,0.18255 7.8997875,-0.007 z m -3.1329771,-4.466 c -0.6677496,-0.74331 0.047234,-1.78052 0.9808721,-1.42293 0.860419,0.32955 0.526094,1.7394 -0.4124727,1.7394 -0.1562577,0 -0.4120374,-0.14241 -0.5683994,-0.31647 z m 14.4656781,4.18912 c 1.853921,-0.31904 3.09671,-0.91948 3.968701,-1.91744 0.865399,-0.99042 1.208644,-2.11056 1.205329,-3.93345 -0.0056,-3.0776 -1.009717,-5.45793 -3.255174,-7.7166 -1.621601,-1.63114 -3.157433,-2.53832 -5.159533,-3.04761 -1.452587,-0.3695 -4.047745,-0.36898 -5.496977,10e-4 -1.422079,0.36316 -3.327985,1.29938 -4.210087,2.06809 l -0.6856584,0.59753 0.3842734,0.79809 c 0.211351,0.43895 0.470746,0.79809 0.576434,0.79809 0.105689,0 0.435224,-0.20672 0.7323,-0.45938 0.875199,-0.74436 1.812685,-1.09012 2.967034,-1.09428 1.219545,-0.004 2.034253,0.29346 2.902028,1.06102 0.999149,0.88375 1.361917,1.75316 1.366536,3.27504 0.0035,1.16054 -0.05584,1.40947 -0.515886,2.16315 -0.330356,0.54121 -0.883969,1.09678 -1.518668,1.52401 -0.884996,0.59572 -0.987329,0.72389 -0.898119,1.12484 0.292704,1.31555 0.307721,2.75653 0.03845,3.68964 -0.349868,1.21241 -0.348526,1.30317 0.02088,1.41163 0.547089,0.16062 6.115367,-0.0918 7.578136,-0.34348 z M 5.4080994,271.00756 c 0.7639907,-0.31013 1.6030372,-0.49232 2.5901861,-0.56242 L 9.45842,270.34146 9.45223,269.45442 c -0.015975,-2.29111 -2.5641929,-3.63082 -4.6094213,-2.42336 -1.2879054,0.76035 -1.8212811,2.41842 -1.2336972,3.83511 0.1368981,0.33007 0.3434113,0.60012 0.4589186,0.60012 0.1155071,0 0.7185362,-0.20643 1.3400644,-0.45873 z"
         id="path4641"
         inkscape:connector-curvature="0" />
    </g>
    <path
       id="path4606"
       transform="matrix(0.26458333,0,0,0.26458333,0,257.3125)"
       style="fill:none;fill-opacity:1;fill-rule:nonzero;stroke:none;stroke-width:3.77952766"
       d="M 33.738281,7.4277344 C 33.406005,7.5769501 33.051731,7.683 32.742188,7.875 c -0.0643,0.039735 -0.170079,0.1365344 -0.240235,0.2167969 -0.224116,0.1344531 -0.434916,0.2390917 -0.394531,0.082031 -0.0311,0.010702 -0.202762,0.060074 -0.31836,0.09375 0.261942,-0.013217 0.05971,6.086e-4 0.56836,-0.023437 0.955029,-0.044976 1.913695,-0.060182 2.867187,-0.1308594 C 35.531039,8.0906093 35.83647,8.057607 36.142578,8.03125 35.851849,7.7979858 35.437159,7.6137708 34.886719,7.5292969 34.505815,7.4707139 34.126409,7.4126163 33.738281,7.4277344 Z M 20.945312,11.007812 c -0.01495,0.07046 -0.0337,0.140107 -0.04687,0.210938 -0.0056,0.03024 0.06164,-0.01163 0.0918,-0.0078 0.04711,0.0068 0.09284,0.02181 0.138672,0.03516 -6.3e-5,0.0026 6.6e-5,0.0052 0,0.0078 0.01105,8.52e-4 0.02215,-8.22e-4 0.0332,0 0.0039,0.0012 0.0078,0.0028 0.01172,0.0039 0.108147,-0.0637 0.21632,-0.127291 0.324219,-0.191406 -0.01001,-0.01837 -0.01092,-0.03973 -0.01953,-0.05859 H 21.3125 c -0.114489,-1.6e-5 -0.242339,-4e-6 -0.367188,0 z m 5.439454,0.431641 c -0.416833,0.210116 -0.830936,0.424981 -1.240235,0.648438 h 1.185547 0.119141 v -0.632813 c -0.03034,-0.0075 -0.03382,-0.0079 -0.06445,-0.01563 z m 5.904296,0.08984 c -0.340467,0.02225 -0.680317,0.03859 -1.023437,0.0332 -0.678664,-0.03024 -1.358016,-0.01563 -2.037109,-0.01563 -0.0267,4e-5 -0.05338,-3.3e-5 -0.08008,0 v 0.541016 h 1.484374 v 0.0039 c 0.783869,0 1.334311,-0.234063 1.65625,-0.5625 z" />
    <path
       style="fill:#ffffff;fill-opacity:1;stroke-width:0.05403711"
       d="m 12.992685,270.1764 c -0.320451,0.24835 -0.879481,0.75029 -1.178509,1.05815 l -0.240497,0.24761 -1.508626,-1.24695 c -0.8297539,-0.68583 -1.5295737,-1.24619 -1.5551668,-1.24526 -0.025536,10e-4 -0.1085874,0.1457 -0.1844354,0.32172 -0.4967186,1.15265 -1.8303687,1.85645 -3.1652856,1.67039 -1.1390307,-0.15876 -2.1184285,-0.93107 -2.4221466,-1.91001 -0.078369,-0.2526 -0.1057991,-0.48046 -0.1030267,-0.85676 0.00337,-0.46138 0.022764,-0.55508 0.1945874,-0.9372 0.2396996,-0.53312 0.6458043,-0.98031 1.15492,-1.27176 0.5403065,-0.30929 0.9891716,-0.41956 1.6741295,-0.41128 l 0.5601583,0.007 -0.03958,-0.16591 c -0.1520346,-0.63817 -0.101837,-1.23534 0.149723,-1.78016 0.074926,-0.16237 0.2913383,-0.46201 0.4808274,-0.66586 0.5735514,-0.61701 1.2313215,-0.90472 2.1417978,-0.9368 0.8135789,-0.0286 1.4818697,0.18594 2.0666377,0.66366 1.067849,0.87238 1.304884,2.31898 0.56485,3.44722 -0.263538,0.40179 -0.619907,0.71148 -1.113343,0.96752 l -0.409078,0.21227 1.495509,1.22829 c 0.822523,0.67554 1.53675,1.27064 1.587162,1.32242 0.08619,0.0885 0.0771,0.10542 -0.150605,0.28191 z m -2.674433,-6.00964 c -0.365484,-0.64937 -1.2652245,-0.9084 -1.9395637,-0.55839 -1.3274266,0.68898 -0.7603994,2.49417 0.7659249,2.43846 0.3858253,-0.0141 0.8841348,-0.27089 1.0894118,-0.56142 0.285384,-0.40392 0.317354,-0.90443 0.08423,-1.31865 z m -3.4584868,3.54611 c -0.2334602,-0.41373 -0.7104569,-0.6911 -1.2272647,-0.71365 -1.2047191,-0.0526 -1.907879,1.2011 -1.174213,2.0935 0.6799466,0.82705 2.1530484,0.5719 2.4930226,-0.43176 0.077951,-0.23025 0.029349,-0.73378 -0.09155,-0.94806 z"
       id="path4753"
       inkscape:connector-curvature="0"
       inkscape:transform-center-x="0.15284002" />
    <path
       style="fill:#ffffff;fill-opacity:1;stroke-width:0.20423473"
       d=""
       id="path4755"
       inkscape:connector-curvature="0"
       transform="matrix(0.26458333,0,0,0.26458333,0,257.3125)" />
    <path
       style="fill:#ffffff;fill-opacity:1;stroke-width:0.20423473"
       d=""
       id="path4757"
       inkscape:connector-curvature="0"
       transform="matrix(0.26458333,0,0,0.26458333,0,257.3125)" />
    <path
       style="fill:#ffffff;fill-opacity:1;stroke-width:0.02552934"
       d=""
       id="path4759"
       inkscape:connector-curvature="0"
       transform="matrix(0.26458333,0,0,0.26458333,0,257.3125)" />
    <path
       style="fill:#ffffff;fill-opacity:1;stroke-width:0.00451299"
       d=""
       id="path4761"
       inkscape:connector-curvature="0"
       transform="matrix(0.26458333,0,0,0.26458333,0,257.3125)" />
    <path
       style="fill:#ffffff;fill-opacity:1;stroke-width:0.00451299"
       d=""
       id="path4763"
       inkscape:connector-curvature="0"
       transform="matrix(0.26458333,0,0,0.26458333,0,257.3125)" />
  </g>
</svg>
